PathFileType	4	(X/Y/Z)	s02c0101.trc
DataRate	CameraRate	NumFrames	NumMarkers	Units	OrigDataRate	OrigDataStartFrame	OrigNumFrames
200	200	4	51	mm	200	1500	2000
Frame#	Time	racr			lacr			c7			jug			rlel			rdr			llel			ldr			s2			lic			ric			lasi			rasi			rpsi			lpsi			rgt			lgt			rth1			rth2			rth3			rth4			rlfc			rmfc			rsh1			rsh2			rsh3			rsh4			rlmal			rmmal			rtoe			rmt5			rmt1			lth1			lth2			lth4			lth3			llfc			lmfc			lsh1			lsh2			lsh3			lsh4			llmal			lmmal			lcal			ltoe			lmt1			lmt5			SBIKE			LBIKE			RBIKE			
		X1	Y1	Z1	X2	Y2	Z2	X3	Y3	Z3	X4	Y4	Z4	X5	Y5	Z5	X6	Y6	Z6	X7	Y7	Z7	X8	Y8	Z8	X9	Y9	Z9	X10	Y10	Z10	X11	Y11	Z11	X12	Y12	Z12	X13	Y13	Z13	X14	Y14	Z14	X15	Y15	Z15	X16	Y16	Z16	X17	Y17	Z17	X18	Y18	Z18	X19	Y19	Z19	X20	Y20	Z20	X21	Y21	Z21	X22	Y22	Z22	X23	Y23	Z23	X24	Y24	Z24	X25	Y25	Z25	X26	Y26	Z26	X27	Y27	Z27	X28	Y28	Z28	X29	Y29	Z29	X30	Y30	Z30	X31	Y31	Z31	X32	Y32	Z32	X33	Y33	Z33	X34	Y34	Z34	X35	Y35	Z35	X36	Y36	Z36	X37	Y37	Z37	X38	Y38	Z38	X39	Y39	Z39	X40	Y40	Z40	X41	Y41	Z41	X42	Y42	Z42	X43	Y43	Z43	X44	Y44	Z44	X45	Y45	Z45	X46	Y46	Z46	X47	Y47	Z47	X48	Y48	Z48	X49	Y49	Z49	X50	Y50	Z50	X51	Y51	Z51	
1500	7.5000	515.161672	1257.308045	-148.920544	528.455671	1241.169580	-494.026725	513.399044	1307.397415	-326.200033	456.944363	1177.252309	-326.424855	543.284236	992.129528	-79.726675	719.710584	860.307344	-134.010420	512.311238	973.643147	-596.754130	688.196249	842.205730	-521.540610	0.620221	1110.156868	-339.360632	134.010740	1115.164042	-483.521408	123.247679	1130.920323	-199.020761	177.021757	1084.821523	-458.069917	177.410047	1106.431028	-221.442230	18.166667	1163.881817	-299.631340	22.585298	1153.267010	-384.320049	111.431631	1049.626657	-159.627569	87.429016	1013.869989	-511.068528	202.460821	1010.479628	-148.885991	286.525598	984.120552	-152.297758	347.009982	928.267689	-128.604786	302.386846	1006.408193	-178.627499	445.134113	818.495067	-161.791846	438.898177	798.216878	-269.502521	437.102428	706.989022	-142.270077	433.912875	618.970801	-160.894624	393.301573	543.617636	-155.821433	448.173289	618.181027	-197.820715	351.751371	435.845074	-158.671999	356.002234	450.919732	-239.858005	563.805192	380.904566	-192.999844	454.762462	365.883300	-132.768533	480.556932	381.605539	-240.913650	205.621357	929.884857	-518.803690	279.759564	884.412069	-515.779424	303.518993	907.076740	-499.537298	321.239384	806.005353	-518.326406	378.355929	723.772015	-496.434836	377.796220	693.325314	-392.754868	322.471959	636.321589	-515.971535	281.625262	561.923390	-499.270655	205.489291	513.337417	-501.407225	298.495879	550.966171	-463.088544	122.342154	443.859413	-490.265535	138.165609	431.577651	-412.586087	44.793062	447.757721	-446.925958	233.703587	232.300271	-439.572324	177.033665	292.330742	-397.346875	143.964598	288.524263	-505.176437	-165.035640	858.131611	-314.753537	32.634513	82.348490	-515.321768	32.927247	82.244691	-115.191369	
1501	7.5050	515.672484	1256.782781	-148.936384	527.770039	1240.805743	-494.084918	512.901314	1307.080805	-326.063430	457.173888	1176.526535	-326.122204	543.573509	991.909789	-78.949520	719.862695	860.290303	-133.930012	512.588730	973.468908	-597.186518	688.318946	842.064586	-521.577561	0.981580	1107.979159	-339.324502	133.933761	1113.898176	-482.750234	123.770952	1128.921111	-198.045831	177.041400	1083.779059	-457.329834	178.016459	1104.506920	-220.495912	18.292179	1161.391524	-298.901233	22.273634	1150.963986	-383.260217	111.179217	1045.848995	-160.326215	88.715212	1012.685155	-511.021934	201.871938	1005.451767	-148.135643	285.459425	977.818456	-151.269061	344.785941	920.503045	-127.956487	301.872770	1000.205482	-177.054952	442.216913	810.942971	-161.558487	435.662496	790.793877	-269.325748	435.273749	699.281966	-141.641997	433.543605	611.130861	-159.792491	394.108873	535.072739	-154.891636	447.830851	610.343995	-196.770644	354.275463	425.869824	-157.860261	359.049058	441.470231	-238.047126	566.149803	369.062101	-193.159311	456.709353	354.266245	-133.320479	482.729864	371.371439	-240.733153	208.481716	931.049740	-518.398235	283.604770	887.284246	-515.101048	306.707466	910.290208	-498.377396	326.887206	809.631915	-517.616463	385.181483	728.606002	-495.950709	383.868437	698.185394	-392.118945	328.157004	642.176923	-515.341887	285.614749	568.681738	-498.542764	208.460521	521.732106	-500.918667	302.243922	557.495360	-462.307733	123.728481	454.620943	-490.028508	139.131124	442.096846	-412.205022	46.116588	459.722619	-446.795674	231.816964	241.365027	-439.552060	176.209475	302.445492	-397.424326	143.028546	299.193002	-505.089365	-165.007427	858.233822	-314.600800	32.659763	82.379338	-515.291772	32.922229	82.275726	-115.169068	
1502	7.5100	516.152236	1256.260647	-148.958003	527.153668	1240.395220	-494.084987	512.376609	1306.802745	-325.913650	457.226791	1175.847964	-325.791782	543.786297	991.688085	-78.067304	719.876587	860.234975	-133.720860	512.960960	973.226490	-597.643812	688.406469	841.901698	-521.649366	1.279568	1105.920023	-339.036577	133.746843	1112.743961	-482.050626	124.442314	1126.929922	-196.911414	176.607249	1082.798035	-456.387729	178.709106	1102.746741	-219.469116	18.253740	1158.818167	-298.375521	22.619340	1149.186499	-383.394262	111.188850	1042.785729	-160.511126	90.017189	1011.519394	-510.807434	201.285893	1000.730866	-147.014305	284.387644	971.735350	-150.208188	342.520279	913.261326	-127.278552	301.531084	994.550197	-175.711873	439.236589	803.156100	-161.337934	433.479170	783.384296	-270.437329	433.362347	691.536442	-141.098230	433.025407	603.129919	-158.926906	395.076642	526.461480	-153.980437	447.185434	602.282927	-196.676669	356.330747	416.117929	-157.016143	362.962240	432.721130	-239.332446	567.901373	356.832179	-193.053134	458.731141	343.837982	-132.592104	485.125160	360.094343	-239.572497	211.287072	932.306674	-518.016060	287.365508	890.261831	-514.389654	309.780798	913.600683	-497.214589	332.590162	813.632555	-517.350000	392.455550	734.351170	-496.419470	388.760024	702.863814	-390.551082	333.848754	648.275441	-514.635767	289.732489	575.784772	-497.795826	211.652101	530.303859	-500.397206	305.894566	564.283026	-461.372020	125.283538	465.495357	-489.730033	140.634887	452.650826	-411.857267	47.698310	471.537212	-446.563714	230.446474	250.883934	-439.594972	173.923877	310.849850	-395.829493	142.562195	309.926540	-504.951813	-165.035754	858.165399	-314.642177	32.657273	82.417389	-515.273842	32.933444	82.267310	-115.153735	
1503	7.5150	516.582977	1255.764031	-148.880582	526.420764	1239.924911	-494.310877	511.881609	1306.545030	-325.785873	457.181115	1175.455408	-325.477289	544.096350	991.487034	-77.009744	719.779255	860.190736	-133.407727	513.349963	972.958160	-598.121943	688.465920	841.854455	-521.747959	1.656920	1104.003108	-338.403037	133.616335	1111.426237	-481.161680	125.102803	1125.024113	-195.933945	176.677389	1081.808741	-455.490660	179.541775	1101.070574	-218.373097	19.716371	1155.741508	-297.358703	21.377756	1147.086145	-381.411788	111.230364	1039.779616	-160.266336	91.366901	1010.412325	-510.464897	200.873416	996.459388	-145.890117	283.639265	965.960120	-149.046889	340.301641	906.313232	-126.537102	301.091458	988.749848	-173.899263	436.167783	795.379056	-160.936815	430.049732	776.026533	-269.950239	431.465546	683.370570	-140.226174	433.436410	595.240592	-157.875243	395.759629	518.083416	-152.940848	446.136630	595.229343	-195.552779	357.995504	406.806362	-156.193792	364.447157	423.408811	-238.480015	569.206131	344.437358	-193.272450	459.732904	332.369317	-133.113655	486.384133	348.998253	-239.468730	213.966823	933.697533	-517.591086	291.022170	893.468995	-513.724085	312.731356	917.182998	-496.192543	338.060705	817.922490	-516.995097	399.120679	739.824792	-495.879811	397.910786	707.655861	-391.740767	339.513249	654.611212	-513.928384	293.909922	583.177236	-497.146968	214.631557	539.263118	-500.138956	309.394117	571.163763	-460.281633	127.051386	476.397041	-489.269409	142.254476	463.340551	-411.390308	49.276098	483.220899	-446.301169	229.974167	260.665321	-439.668829	173.963506	321.329948	-395.760438	142.750123	320.704628	-504.905055	-165.035594	858.266043	-314.257281	32.666257	82.406852	-515.275007	32.920928	82.291515	-115.163429	
